<mxfile host="app.diagrams.net" modified="2023-08-29T00:24:16.203Z" agent="Mozilla/5.0 (Windows NT 10.0; Win64; x64) AppleWebKit/537.36 (KHTML, like Gecko) Chrome/116.0.0.0 Safari/537.36" etag="uvWTLihWlnThBRfUJBvo" version="21.6.9" type="device">
  <diagram id="C5RBs43oDa-KdzZeNtuy" name="Page-1">
    <mxGraphModel dx="2048" dy="648" grid="1" gridSize="10" guides="1" tooltips="1" connect="1" arrows="1" fold="1" page="1" pageScale="1" pageWidth="827" pageHeight="1169" math="0" shadow="0">
      <root>
        <mxCell id="WIyWlLk6GJQsqaUBKTNV-0" />
        <mxCell id="WIyWlLk6GJQsqaUBKTNV-1" parent="WIyWlLk6GJQsqaUBKTNV-0" />
        <mxCell id="zkfFHV4jXpPFQw0GAbJ--17" value="Jogo Basquete" style="swimlane;fontStyle=0;align=center;verticalAlign=top;childLayout=stackLayout;horizontal=1;startSize=26;horizontalStack=0;resizeParent=1;resizeLast=0;collapsible=1;marginBottom=0;rounded=0;shadow=0;strokeWidth=1;" parent="WIyWlLk6GJQsqaUBKTNV-1" vertex="1">
          <mxGeometry x="390" y="130" width="302" height="200" as="geometry">
            <mxRectangle x="550" y="140" width="160" height="26" as="alternateBounds" />
          </mxGeometry>
        </mxCell>
        <mxCell id="zkfFHV4jXpPFQw0GAbJ--18" value="Equipe1" style="text;align=left;verticalAlign=top;spacingLeft=4;spacingRight=4;overflow=hidden;rotatable=0;points=[[0,0.5],[1,0.5]];portConstraint=eastwest;" parent="zkfFHV4jXpPFQw0GAbJ--17" vertex="1">
          <mxGeometry y="26" width="302" height="26" as="geometry" />
        </mxCell>
        <mxCell id="zkfFHV4jXpPFQw0GAbJ--19" value="Equipe2" style="text;align=left;verticalAlign=top;spacingLeft=4;spacingRight=4;overflow=hidden;rotatable=0;points=[[0,0.5],[1,0.5]];portConstraint=eastwest;rounded=0;shadow=0;html=0;" parent="zkfFHV4jXpPFQw0GAbJ--17" vertex="1">
          <mxGeometry y="52" width="302" height="26" as="geometry" />
        </mxCell>
        <mxCell id="zkfFHV4jXpPFQw0GAbJ--20" value="PontosP/Quartos" style="text;align=left;verticalAlign=top;spacingLeft=4;spacingRight=4;overflow=hidden;rotatable=0;points=[[0,0.5],[1,0.5]];portConstraint=eastwest;rounded=0;shadow=0;html=0;" parent="zkfFHV4jXpPFQw0GAbJ--17" vertex="1">
          <mxGeometry y="78" width="302" height="26" as="geometry" />
        </mxCell>
        <mxCell id="zkfFHV4jXpPFQw0GAbJ--23" value="" style="line;html=1;strokeWidth=1;align=left;verticalAlign=middle;spacingTop=-1;spacingLeft=3;spacingRight=3;rotatable=0;labelPosition=right;points=[];portConstraint=eastwest;" parent="zkfFHV4jXpPFQw0GAbJ--17" vertex="1">
          <mxGeometry y="104" width="302" height="8" as="geometry" />
        </mxCell>
        <mxCell id="zkfFHV4jXpPFQw0GAbJ--24" value="SomaPontos(pontosP/Quartos)" style="text;align=left;verticalAlign=top;spacingLeft=4;spacingRight=4;overflow=hidden;rotatable=0;points=[[0,0.5],[1,0.5]];portConstraint=eastwest;" parent="zkfFHV4jXpPFQw0GAbJ--17" vertex="1">
          <mxGeometry y="112" width="302" height="26" as="geometry" />
        </mxCell>
        <mxCell id="zkfFHV4jXpPFQw0GAbJ--25" value="SomaFInal(SomaPontos)" style="text;align=left;verticalAlign=top;spacingLeft=4;spacingRight=4;overflow=hidden;rotatable=0;points=[[0,0.5],[1,0.5]];portConstraint=eastwest;" parent="zkfFHV4jXpPFQw0GAbJ--17" vertex="1">
          <mxGeometry y="138" width="302" height="30" as="geometry" />
        </mxCell>
        <mxCell id="siB23Tk5aNA7I7f5-MT6-2" value="EquipeCampea(SomaFinal)" style="text;align=left;verticalAlign=top;spacingLeft=4;spacingRight=4;overflow=hidden;rotatable=0;points=[[0,0.5],[1,0.5]];portConstraint=eastwest;" vertex="1" parent="zkfFHV4jXpPFQw0GAbJ--17">
          <mxGeometry y="168" width="302" height="30" as="geometry" />
        </mxCell>
        <mxCell id="siB23Tk5aNA7I7f5-MT6-3" value="Compania Eletrica" style="swimlane;fontStyle=0;align=center;verticalAlign=top;childLayout=stackLayout;horizontal=1;startSize=26;horizontalStack=0;resizeParent=1;resizeLast=0;collapsible=1;marginBottom=0;rounded=0;shadow=0;strokeWidth=1;" vertex="1" parent="WIyWlLk6GJQsqaUBKTNV-1">
          <mxGeometry x="20" y="130" width="302" height="260" as="geometry">
            <mxRectangle x="550" y="140" width="160" height="26" as="alternateBounds" />
          </mxGeometry>
        </mxCell>
        <mxCell id="siB23Tk5aNA7I7f5-MT6-4" value="Identificador de Unidade" style="text;align=left;verticalAlign=top;spacingLeft=4;spacingRight=4;overflow=hidden;rotatable=0;points=[[0,0.5],[1,0.5]];portConstraint=eastwest;" vertex="1" parent="siB23Tk5aNA7I7f5-MT6-3">
          <mxGeometry y="26" width="302" height="26" as="geometry" />
        </mxCell>
        <mxCell id="siB23Tk5aNA7I7f5-MT6-5" value="RelogioAtual :Â " style="text;align=left;verticalAlign=top;spacingLeft=4;spacingRight=4;overflow=hidden;rotatable=0;points=[[0,0.5],[1,0.5]];portConstraint=eastwest;rounded=0;shadow=0;html=0;" vertex="1" parent="siB23Tk5aNA7I7f5-MT6-3">
          <mxGeometry y="52" width="302" height="26" as="geometry" />
        </mxCell>
        <mxCell id="siB23Tk5aNA7I7f5-MT6-6" value="RelogioMesPassado" style="text;align=left;verticalAlign=top;spacingLeft=4;spacingRight=4;overflow=hidden;rotatable=0;points=[[0,0.5],[1,0.5]];portConstraint=eastwest;rounded=0;shadow=0;html=0;" vertex="1" parent="siB23Tk5aNA7I7f5-MT6-3">
          <mxGeometry y="78" width="302" height="26" as="geometry" />
        </mxCell>
        <mxCell id="siB23Tk5aNA7I7f5-MT6-8" value="Taxas" style="text;align=left;verticalAlign=top;spacingLeft=4;spacingRight=4;overflow=hidden;rotatable=0;points=[[0,0.5],[1,0.5]];portConstraint=eastwest;rounded=0;shadow=0;html=0;" vertex="1" parent="siB23Tk5aNA7I7f5-MT6-3">
          <mxGeometry y="104" width="302" height="26" as="geometry" />
        </mxCell>
        <mxCell id="siB23Tk5aNA7I7f5-MT6-9" value="" style="line;html=1;strokeWidth=1;align=left;verticalAlign=middle;spacingTop=-1;spacingLeft=3;spacingRight=3;rotatable=0;labelPosition=right;points=[];portConstraint=eastwest;" vertex="1" parent="siB23Tk5aNA7I7f5-MT6-3">
          <mxGeometry y="130" width="302" height="8" as="geometry" />
        </mxCell>
        <mxCell id="siB23Tk5aNA7I7f5-MT6-10" value="ConsumoMes(RelogioAtual, RelogioMesPassado)" style="text;align=left;verticalAlign=top;spacingLeft=4;spacingRight=4;overflow=hidden;rotatable=0;points=[[0,0.5],[1,0.5]];portConstraint=eastwest;" vertex="1" parent="siB23Tk5aNA7I7f5-MT6-3">
          <mxGeometry y="138" width="302" height="26" as="geometry" />
        </mxCell>
        <mxCell id="siB23Tk5aNA7I7f5-MT6-11" value="CalculoValorConta(ConsumoMes, Taxas)" style="text;align=left;verticalAlign=top;spacingLeft=4;spacingRight=4;overflow=hidden;rotatable=0;points=[[0,0.5],[1,0.5]];portConstraint=eastwest;" vertex="1" parent="siB23Tk5aNA7I7f5-MT6-3">
          <mxGeometry y="164" width="302" height="30" as="geometry" />
        </mxCell>
        <mxCell id="siB23Tk5aNA7I7f5-MT6-12" value="CalculoTaxas(taxas, CalculoValorConta)" style="text;align=left;verticalAlign=top;spacingLeft=4;spacingRight=4;overflow=hidden;rotatable=0;points=[[0,0.5],[1,0.5]];portConstraint=eastwest;" vertex="1" parent="siB23Tk5aNA7I7f5-MT6-3">
          <mxGeometry y="194" width="302" height="30" as="geometry" />
        </mxCell>
        <mxCell id="siB23Tk5aNA7I7f5-MT6-23" value="ValorFInalConta(CalculoTaxas, CalculoValorConta)" style="text;html=1;align=center;verticalAlign=middle;resizable=0;points=[];autosize=1;strokeColor=none;fillColor=none;" vertex="1" parent="siB23Tk5aNA7I7f5-MT6-3">
          <mxGeometry y="224" width="302" height="30" as="geometry" />
        </mxCell>
        <mxCell id="siB23Tk5aNA7I7f5-MT6-13" value="Banco" style="swimlane;fontStyle=0;align=center;verticalAlign=top;childLayout=stackLayout;horizontal=1;startSize=26;horizontalStack=0;resizeParent=1;resizeLast=0;collapsible=1;marginBottom=0;rounded=0;shadow=0;strokeWidth=1;" vertex="1" parent="WIyWlLk6GJQsqaUBKTNV-1">
          <mxGeometry x="-340" y="130" width="302" height="260" as="geometry">
            <mxRectangle x="550" y="140" width="160" height="26" as="alternateBounds" />
          </mxGeometry>
        </mxCell>
        <mxCell id="siB23Tk5aNA7I7f5-MT6-14" value="Digito 5" style="text;align=left;verticalAlign=top;spacingLeft=4;spacingRight=4;overflow=hidden;rotatable=0;points=[[0,0.5],[1,0.5]];portConstraint=eastwest;" vertex="1" parent="siB23Tk5aNA7I7f5-MT6-13">
          <mxGeometry y="26" width="302" height="26" as="geometry" />
        </mxCell>
        <mxCell id="siB23Tk5aNA7I7f5-MT6-15" value="CPF" style="text;align=left;verticalAlign=top;spacingLeft=4;spacingRight=4;overflow=hidden;rotatable=0;points=[[0,0.5],[1,0.5]];portConstraint=eastwest;rounded=0;shadow=0;html=0;" vertex="1" parent="siB23Tk5aNA7I7f5-MT6-13">
          <mxGeometry y="52" width="302" height="26" as="geometry" />
        </mxCell>
        <mxCell id="siB23Tk5aNA7I7f5-MT6-16" value="Saldo" style="text;align=left;verticalAlign=top;spacingLeft=4;spacingRight=4;overflow=hidden;rotatable=0;points=[[0,0.5],[1,0.5]];portConstraint=eastwest;rounded=0;shadow=0;html=0;" vertex="1" parent="siB23Tk5aNA7I7f5-MT6-13">
          <mxGeometry y="78" width="302" height="26" as="geometry" />
        </mxCell>
        <mxCell id="siB23Tk5aNA7I7f5-MT6-17" value="ValorEntrada" style="text;align=left;verticalAlign=top;spacingLeft=4;spacingRight=4;overflow=hidden;rotatable=0;points=[[0,0.5],[1,0.5]];portConstraint=eastwest;rounded=0;shadow=0;html=0;" vertex="1" parent="siB23Tk5aNA7I7f5-MT6-13">
          <mxGeometry y="104" width="302" height="26" as="geometry" />
        </mxCell>
        <mxCell id="siB23Tk5aNA7I7f5-MT6-18" value="Limite" style="text;align=left;verticalAlign=top;spacingLeft=4;spacingRight=4;overflow=hidden;rotatable=0;points=[[0,0.5],[1,0.5]];portConstraint=eastwest;rounded=0;shadow=0;html=0;" vertex="1" parent="siB23Tk5aNA7I7f5-MT6-13">
          <mxGeometry y="130" width="302" height="26" as="geometry" />
        </mxCell>
        <mxCell id="siB23Tk5aNA7I7f5-MT6-19" value="" style="line;html=1;strokeWidth=1;align=left;verticalAlign=middle;spacingTop=-1;spacingLeft=3;spacingRight=3;rotatable=0;labelPosition=right;points=[];portConstraint=eastwest;" vertex="1" parent="siB23Tk5aNA7I7f5-MT6-13">
          <mxGeometry y="156" width="302" height="8" as="geometry" />
        </mxCell>
        <mxCell id="siB23Tk5aNA7I7f5-MT6-20" value="Saque(Double Saldo)" style="text;align=left;verticalAlign=top;spacingLeft=4;spacingRight=4;overflow=hidden;rotatable=0;points=[[0,0.5],[1,0.5]];portConstraint=eastwest;" vertex="1" parent="siB23Tk5aNA7I7f5-MT6-13">
          <mxGeometry y="164" width="302" height="26" as="geometry" />
        </mxCell>
        <mxCell id="siB23Tk5aNA7I7f5-MT6-21" value="Deposito (Double saldo)" style="text;align=left;verticalAlign=top;spacingLeft=4;spacingRight=4;overflow=hidden;rotatable=0;points=[[0,0.5],[1,0.5]];portConstraint=eastwest;" vertex="1" parent="siB23Tk5aNA7I7f5-MT6-13">
          <mxGeometry y="190" width="302" height="30" as="geometry" />
        </mxCell>
        <mxCell id="siB23Tk5aNA7I7f5-MT6-22" value="ValidadaorSaldo()" style="text;align=left;verticalAlign=top;spacingLeft=4;spacingRight=4;overflow=hidden;rotatable=0;points=[[0,0.5],[1,0.5]];portConstraint=eastwest;" vertex="1" parent="siB23Tk5aNA7I7f5-MT6-13">
          <mxGeometry y="220" width="302" height="30" as="geometry" />
        </mxCell>
      </root>
    </mxGraphModel>
  </diagram>
</mxfile>
